<?xml version="1.0" standalone="no"?><!DOCTYPE svg PUBLIC "-//W3C//DTD SVG 1.1//EN" "http://www.w3.org/Graphics/SVG/1.1/DTD/svg11.dtd"><svg height="1080" node-id="1" sillyvg="true" template-height="1080" template-width="1080" version="1.1" viewBox="0 0 1080 1080" width="1080" xmlns="http://www.w3.org/2000/svg" xmlns:xlink="http://www.w3.org/1999/xlink"><defs node-id="117"><linearGradient gradientUnits="objectBoundingBox" id="linearGradient-1" node-id="5" spreadMethod="pad" x1="1.2094132" x2="-0.25048688" y1="0.494954" y2="0.494954"><stop offset="0" stop-color="#bcbec0" stop-opacity="0"></stop><stop offset="1" stop-color="#a1a3a6"></stop></linearGradient><linearGradient gradientUnits="objectBoundingBox" id="linearGradient-2" node-id="8" spreadMethod="pad" x1="0.5169358" x2="0.47718045" y1="0.0974362" y2="1.0007974"><stop offset="0" stop-color="#f2f2f3"></stop><stop offset="1" stop-color="#a2a4a7"></stop></linearGradient><linearGradient gradientUnits="objectBoundingBox" id="linearGradient-3" node-id="11" spreadMethod="pad" x1="0.49269038" x2="0.5171384" y1="0.074888974" y2="0.9985335"><stop offset="0" stop-color="#f1f1f2"></stop><stop offset="1" stop-color="#a2a4a7"></stop></linearGradient><linearGradient gradientUnits="objectBoundingBox" id="linearGradient-4" node-id="14" spreadMethod="pad" x1="0.4986572" x2="0.4986572" y1="1.0001063" y2="-0.44149363"><stop offset="0" stop-color="#f7f7f7"></stop><stop offset="1" stop-color="#dbdcdd"></stop></linearGradient><linearGradient gradientUnits="objectBoundingBox" id="linearGradient-5" node-id="17" spreadMethod="pad" x1="0.4999504" x2="0.4999504" y1="0.9963927" y2="0.028771164"><stop offset="0" stop-color="#f2f2f3" stop-opacity="0"></stop><stop offset="1" stop-color="#ebebec"></stop></linearGradient><linearGradient gradientUnits="objectBoundingBox" id="linearGradient-6" node-id="20" spreadMethod="pad" x1="0.5000121" x2="0.5000121" y1="0.99704915" y2="0.028549144"><stop offset="0" stop-color="#f2f2f3" stop-opacity="0"></stop><stop offset="1" stop-color="#ebebec"></stop></linearGradient><linearGradient gradientUnits="objectBoundingBox" id="linearGradient-7" node-id="23" spreadMethod="pad" x1="0.49997026" x2="0.49997026" y1="0.99996376" y2="0.000988388"><stop offset="0.002903294" stop-color="#f2f2f3" stop-opacity="0"></stop><stop offset="0.9798" stop-color="#ededee"></stop></linearGradient><linearGradient gradientUnits="objectBoundingBox" id="linearGradient-8" node-id="26" spreadMethod="pad" x1="0.5234527" x2="0.4701875" y1="0.09366339" y2="0.9998581"><stop offset="0" stop-color="#f2f2f3"></stop><stop offset="1" stop-color="#a2a4a7"></stop></linearGradient><linearGradient gradientUnits="objectBoundingBox" id="linearGradient-9" node-id="29" spreadMethod="pad" x1="0.48885635" x2="0.5245774" y1="0.07504363" y2="0.9966592"><stop offset="0" stop-color="#f1f1f2"></stop><stop offset="1" stop-color="#a2a4a7"></stop></linearGradient><linearGradient gradientUnits="objectBoundingBox" id="linearGradient-10" node-id="32" spreadMethod="pad" x1="0.52245086" x2="0.46896595" y1="0.09786528" y2="1.0030867"><stop offset="0" stop-color="#f2f2f3"></stop><stop offset="1" stop-color="#a2a4a7"></stop></linearGradient><linearGradient gradientUnits="objectBoundingBox" id="linearGradient-11" node-id="35" spreadMethod="pad" x1="0.4876765" x2="0.52464366" y1="0.074530855" y2="0.9967368"><stop offset="0" stop-color="#f1f1f2"></stop><stop offset="1" stop-color="#a2a4a7"></stop></linearGradient><linearGradient gradientUnits="objectBoundingBox" id="linearGradient-12" node-id="38" spreadMethod="pad" x1="0.4998221" x2="0.4998221" y1="0.00014368491" y2="1.0001332"><stop offset="0" stop-color="#f5f6f6"></stop><stop offset="1" stop-color="#cecfd1"></stop></linearGradient><linearGradient gradientUnits="objectBoundingBox" id="linearGradient-13" node-id="41" spreadMethod="pad" x1="0.4998221" x2="0.4998221" y1="0.00014787767" y2="1.0001372"><stop offset="0" stop-color="#ebebec"></stop><stop offset="1" stop-color="#cecfd1"></stop></linearGradient><linearGradient gradientUnits="objectBoundingBox" id="linearGradient-14" node-id="44" spreadMethod="pad" x1="0.4993367" x2="0.4993367" y1="0.00033723537" y2="1.0001359"><stop offset="0" stop-color="#ebebec"></stop><stop offset="1" stop-color="#cecfd1"></stop></linearGradient><linearGradient gradientUnits="objectBoundingBox" id="linearGradient-15" node-id="47" spreadMethod="pad" x1="0.49945268" x2="0.49945268" y1="0.004575412" y2="0.9853334"><stop offset="0" stop-color="#dfdfe1"></stop><stop offset="1" stop-color="#f7f7f7"></stop></linearGradient><linearGradient gradientUnits="objectBoundingBox" id="linearGradient-16" node-id="50" spreadMethod="pad" x1="0.49945268" x2="0.49945268" y1="0.0045982394" y2="0.9853562"><stop offset="0" stop-color="#ffffff"></stop><stop offset="1" stop-color="#dcdcdc"></stop></linearGradient><linearGradient gradientUnits="objectBoundingBox" id="linearGradient-17" node-id="53" spreadMethod="pad" x1="0.9994524" x2="0.060106818" y1="0.49999472" y2="0.49972367"><stop offset="0" stop-color="#ebebec"></stop><stop offset="1" stop-color="#b5b6b9"></stop></linearGradient><linearGradient gradientUnits="objectBoundingBox" id="linearGradient-18" node-id="56" spreadMethod="pad" x1="0.9994524" x2="0.060106818" y1="0.4999231" y2="0.49965206"><stop offset="0" stop-color="#ebebec"></stop><stop offset="1" stop-color="#b5b6b9"></stop></linearGradient><linearGradient gradientUnits="objectBoundingBox" id="linearGradient-19" node-id="59" spreadMethod="pad" x1="0.99946994" x2="0.06047636" y1="0.5013761" y2="0.49821717"><stop offset="0" stop-color="#ebebec"></stop><stop offset="1" stop-color="#b5b6b9"></stop></linearGradient><linearGradient gradientUnits="objectBoundingBox" id="linearGradient-20" node-id="62" spreadMethod="pad" x1="0.5" x2="0.5" y1="0" y2="1"><stop offset="0" stop-color="#e2e3e4"></stop><stop offset="1" stop-color="#c1c2c5"></stop></linearGradient><linearGradient gradientUnits="objectBoundingBox" id="linearGradient-21" node-id="65" spreadMethod="pad" x1="0.49916652" x2="0.49916652" y1="0.0008325228" y2="1.0008378"><stop offset="0" stop-color="#ececed"></stop><stop offset="1" stop-color="#aaacaf"></stop></linearGradient><linearGradient gradientUnits="objectBoundingBox" id="linearGradient-22" node-id="68" spreadMethod="pad" x1="0.9407595" x2="-0.00027282658" y1="0.81445694" y2="0.17983107"><stop offset="0" stop-color="#ebebec"></stop><stop offset="1" stop-color="#b5b6b9"></stop></linearGradient><linearGradient gradientUnits="objectBoundingBox" id="linearGradient-23" node-id="71" spreadMethod="pad" x1="0.14852858" x2="0.85186976" y1="0.14929481" y2="0.852636"><stop offset="0" stop-color="#ffffff" stop-opacity="0.6357"></stop><stop offset="1" stop-color="#ffffff" stop-opacity="0.09743772"></stop></linearGradient></defs><g node-id="256"><g node-id="257"><g node-id="258"><path d="M 0.00 0.00 L 1080.00 0.00 L 1080.00 1080.00 L 0.00 1080.00 Z" fill="#ffffff" fill-opacity="0" fill-rule="nonzero" group-id="1,2,3" id="矩形" node-id="78" stroke="none" target-height="1080" target-width="1080" target-x="0" target-y="0"></path><g node-id="260"><path d="M 688.50 881.70 L 688.20 882.70 L 687.10 883.70 L 684.90 885.00 L 680.90 886.40 L 675.90 887.80 L 659.80 890.60 L 645.60 892.20 L 627.70 893.80 L 608.70 895.00 L 586.90 895.90 L 540.00 896.70 L 493.10 895.90 L 471.30 895.00 L 452.30 893.80 L 434.40 892.20 L 420.20 890.60 L 404.10 887.80 L 399.10 886.40 L 395.10 885.00 L 392.90 883.70 L 391.80 882.70 L 391.50 881.70 L 391.80 880.70 L 392.90 879.70 L 395.10 878.40 L 399.10 877.00 L 411.00 874.30 L 420.20 872.80 L 434.40 871.20 L 452.30 869.60 L 471.30 868.40 L 493.10 867.50 L 540.00 866.70 L 586.90 867.50 L 608.70 868.40 L 627.70 869.60 L 645.60 871.20 L 659.80 872.80 L 675.90 875.60 L 680.90 877.00 L 684.90 878.40 L 687.10 879.70 L 688.20 880.70 L 688.50 881.70 Z" fill="url(#linearGradient-1)" fill-opacity="0.2648" fill-rule="nonzero" group-id="1,2,3,5" id="椭圆形" node-id="79" stroke="none" target-height="30" target-width="297" target-x="391.5" target-y="866.7"></path></g><g node-id="261"><g node-id="268"><path d="M 232.20 668.10 L 232.00 669.00 L 231.20 669.90 L 229.80 670.80 L 227.30 671.90 L 223.60 672.80 L 219.50 673.30 L 214.80 673.50 L 210.10 673.30 L 206.00 672.80 L 202.30 671.90 L 199.80 670.80 L 198.40 669.90 L 197.60 669.00 L 197.40 668.10 L 197.60 667.20 L 198.40 666.30 L 199.80 665.40 L 202.30 664.30 L 206.00 663.40 L 210.10 662.90 L 214.80 662.70 L 219.50 662.90 L 223.60 663.40 L 227.30 664.30 L 229.80 665.40 L 231.20 666.30 L 232.00 667.20 L 232.20 668.10 Z" fill="#888a8f" fill-opacity="0.3733638" fill-rule="nonzero" group-id="1,2,3,6,13" id="椭圆形_1_" node-id="81" stroke="none" target-height="10.799988" target-width="34.800003" target-x="197.4" target-y="662.7"></path></g><g node-id="269"><path d="M 199.50 668.10 L 200.30 668.10 L 201.50 667.60 L 203.30 666.20 L 205.80 663.60 L 212.30 655.40 L 222.40 640.20 L 229.90 626.70 L 231.00 624.00 L 231.90 620.70 L 232.20 617.50 L 232.10 614.30 L 231.50 611.20 L 230.60 608.40 L 229.20 605.80 L 227.40 603.50 L 225.30 601.70 L 222.90 600.30 L 220.20 599.50 L 217.60 599.30 L 215.00 599.70 L 212.40 600.60 L 210.00 601.90 L 207.70 603.80 L 205.80 606.10 L 204.20 608.80 L 202.80 612.00 L 201.10 619.40 L 199.30 630.50 L 198.00 643.00 L 197.40 654.80 L 197.40 660.10 L 198.30 666.30 L 198.90 667.50 L 199.50 668.10 Z" fill="url(#linearGradient-2)" fill-opacity="0.35945928" fill-rule="nonzero" group-id="1,2,3,6,14" id="椭圆形_2_" node-id="82" stroke="none" target-height="68.79999" target-width="34.800003" target-x="197.4" target-y="599.3"></path></g><path d="M 200.40 668.10 L 201.80 666.60 L 203.30 661.20 L 204.00 656.40 L 204.70 645.30 L 204.80 632.80 L 204.40 620.50 L 203.10 605.50 L 202.50 602.70 L 201.20 598.90 L 199.50 595.60 L 197.50 592.70 L 195.00 590.20 L 192.30 588.30 L 189.40 586.90 L 184.80 586.00 L 180.00 586.50 L 175.60 588.60 L 172.00 591.90 L 170.20 594.60 L 168.80 597.70 L 167.80 601.20 L 167.30 604.90 L 167.40 608.60 L 168.00 612.60 L 170.30 619.50 L 174.60 629.00 L 180.00 639.90 L 186.00 650.70 L 191.80 659.90 L 194.60 663.70 L 198.50 667.50 L 199.60 668.10 L 200.40 668.10 Z" fill="url(#linearGradient-3)" fill-opacity="0.62352" fill-rule="nonzero" group-id="1,2,3,6" id="椭圆形_3_" node-id="83" stroke="none" target-height="82.099976" target-width="37.5" target-x="167.3" target-y="586"></path></g><g node-id="262"><path d="M 255.30 286.20 L 251.70 285.90 L 247.20 286.20 L 242.90 286.00 L 238.70 285.30 L 234.70 284.30 L 230.90 282.90 L 223.80 279.10 L 220.70 276.70 L 215.00 271.00 L 210.50 264.30 L 208.80 260.60 L 207.40 256.80 L 206.40 252.80 L 205.70 248.60 L 205.50 244.20 L 205.70 239.80 L 206.40 235.60 L 207.40 231.60 L 208.80 227.80 L 210.50 224.10 L 215.00 217.50 L 220.70 211.90 L 227.30 207.50 L 234.70 204.30 L 238.70 203.30 L 242.90 202.70 L 247.20 202.50 L 255.00 203.10 L 257.60 198.70 L 260.60 194.60 L 263.80 190.80 L 267.50 187.20 L 271.40 184.00 L 275.60 181.20 L 280.00 178.80 L 284.70 176.70 L 289.60 175.00 L 294.70 173.80 L 299.90 173.10 L 305.40 172.80 L 314.60 173.60 L 323.30 175.70 L 328.80 177.90 L 334.00 180.60 L 338.80 183.80 L 343.40 187.50 L 347.40 191.50 L 351.10 196.10 L 354.30 200.90 L 357.00 206.10 L 359.20 211.60 L 360.40 215.90 L 361.90 224.80 L 362.10 229.50 L 396.00 229.50 L 399.90 229.80 L 403.50 230.50 L 407.00 231.70 L 410.30 233.40 L 413.20 235.40 L 416.00 237.80 L 418.30 240.50 L 420.30 243.40 L 422.00 246.70 L 423.20 250.20 L 423.90 253.80 L 424.20 257.70 L 423.90 261.60 L 423.20 265.20 L 422.00 268.70 L 420.30 272.00 L 418.30 275.10 L 416.00 277.80 L 413.20 280.20 L 410.30 282.30 L 407.00 283.90 L 403.50 285.20 L 399.90 285.90 L 396.00 286.20 L 255.30 286.20 Z" fill="url(#linearGradient-4)" fill-opacity="0.56" fill-rule="nonzero" group-id="1,2,3,7" id="形状结合" node-id="84" stroke="none" target-height="113.40001" target-width="218.70001" target-x="205.5" target-y="172.8"></path></g><g node-id="263"><path d="M 108.00 799.20 L 117.60 785.60 L 126.80 773.30 L 135.80 762.10 L 144.50 752.10 L 152.90 743.20 L 161.10 735.20 L 169.10 728.10 L 176.80 721.80 L 184.80 716.00 L 192.60 711.10 L 200.20 706.90 L 207.60 703.40 L 214.80 700.70 L 221.90 698.60 L 228.80 697.20 L 235.60 696.30 L 242.40 696.00 L 249.10 696.30 L 255.90 697.10 L 263.00 698.60 L 270.30 700.60 L 277.80 703.30 L 285.60 706.80 L 293.70 711.00 L 302.20 716.00 L 311.00 721.80 L 319.40 728.10 L 328.20 735.20 L 337.30 743.10 L 346.80 752.10 L 356.60 762.10 L 366.90 773.30 L 377.60 785.60 L 388.80 799.20 L 108.00 799.20 Z" fill="url(#linearGradient-5)" fill-opacity="0.8" fill-rule="nonzero" group-id="1,2,3,8" id="路径" node-id="86" stroke="none" target-height="103.20001" target-width="280.8" target-x="108" target-y="696"></path><path d="M 274.20 799.20 L 283.20 782.80 L 292.10 767.70 L 300.80 753.90 L 309.40 741.40 L 317.90 730.00 L 326.20 719.60 L 334.40 710.30 L 342.50 702.00 L 350.40 694.50 L 358.30 687.90 L 366.00 682.00 L 373.70 676.90 L 381.20 672.50 L 388.70 668.80 L 396.20 665.70 L 403.60 663.20 L 411.00 661.30 L 418.30 659.90 L 425.80 659.10 L 433.20 658.80 L 441.30 659.10 L 450.40 660.00 L 460.50 661.70 L 471.70 664.20 L 484.30 667.60 L 498.20 672.00 L 513.60 677.60 L 530.60 684.30 L 549.40 692.50 L 570.00 702.10 L 592.60 713.40 L 617.40 726.40 L 644.50 741.40 L 674.00 758.40 L 706.10 777.60 L 741.00 799.20 L 274.20 799.20 Z" fill="url(#linearGradient-6)" fill-opacity="0.8" fill-rule="nonzero" group-id="1,2,3,8" id="路径-2" node-id="87" stroke="none" target-height="140.40002" target-width="466.8" target-x="274.2" target-y="658.8"></path><path d="M 972.00 799.20 L 961.50 784.70 L 951.30 771.60 L 941.40 759.70 L 931.90 749.10 L 922.70 739.50 L 913.70 731.00 L 905.10 723.50 L 896.70 716.90 L 888.00 710.70 L 879.50 705.40 L 871.30 700.90 L 863.30 697.30 L 855.50 694.40 L 847.90 692.20 L 840.40 690.60 L 833.10 689.70 L 825.90 689.40 L 818.70 689.70 L 810.70 690.60 L 802.00 692.20 L 792.40 694.50 L 781.80 697.70 L 770.20 701.90 L 757.50 707.00 L 743.70 713.30 L 728.50 720.90 L 711.90 729.80 L 693.90 740.20 L 674.20 752.20 L 652.90 765.90 L 629.80 781.60 L 604.80 799.20 L 972.00 799.20 Z" fill="url(#linearGradient-7)" fill-opacity="0.8" fill-rule="nonzero" group-id="1,2,3,8" id="路径-3" node-id="88" stroke="none" target-height="109.79999" target-width="367.2" target-x="604.8" target-y="689.4"></path></g><g node-id="264"><g node-id="270"><path d="M 823.50 595.20 L 822.80 596.60 L 819.70 598.10 L 813.70 599.20 L 810.00 599.40 L 806.30 599.20 L 800.30 598.10 L 797.20 596.60 L 796.50 595.20 L 797.20 593.80 L 800.30 592.30 L 806.30 591.20 L 810.00 591.00 L 813.70 591.20 L 819.70 592.30 L 822.80 593.80 L 823.50 595.20 Z" fill="#888a8f" fill-opacity="0.53592" fill-rule="nonzero" group-id="1,2,3,9,15" id="椭圆形_4_" node-id="90" stroke="none" target-height="8.400024" target-width="27" target-x="796.5" target-y="591"></path></g><g node-id="271"><path d="M 798.30 595.20 L 799.90 594.90 L 801.30 593.90 L 803.20 592.00 L 808.20 586.10 L 816.00 575.30 L 821.70 565.60 L 823.30 561.30 L 823.50 556.80 L 822.30 552.60 L 820.00 549.20 L 816.60 546.90 L 814.60 546.30 L 812.70 546.20 L 810.60 546.50 L 806.80 548.10 L 805.00 549.50 L 802.10 553.10 L 801.00 555.30 L 799.60 560.40 L 798.30 568.20 L 797.30 577.20 L 796.80 589.40 L 797.40 593.90 L 798.30 595.20 Z" fill="url(#linearGradient-8)" fill-opacity="0.4612" fill-rule="nonzero" group-id="1,2,3,9,16" id="椭圆形_5_" node-id="91" stroke="none" target-height="49" target-width="26.700012" target-x="796.8" target-y="546.2"></path></g><path d="M 797.70 595.20 L 799.00 593.80 L 799.60 591.90 L 800.30 588.90 L 801.10 580.00 L 801.00 564.50 L 800.00 551.60 L 798.60 546.70 L 797.30 544.30 L 795.70 542.30 L 793.70 540.50 L 791.60 539.10 L 789.30 538.00 L 786.90 537.40 L 784.50 537.30 L 782.10 537.60 L 779.80 538.50 L 777.80 539.70 L 776.00 541.30 L 774.60 543.30 L 773.50 545.50 L 772.70 548.00 L 772.30 550.50 L 772.30 553.20 L 772.80 555.90 L 775.10 561.70 L 779.20 570.00 L 787.10 583.50 L 792.30 590.90 L 794.40 593.30 L 795.90 594.60 L 797.70 595.20 Z" fill="url(#linearGradient-9)" fill-opacity="0.8" fill-rule="nonzero" group-id="1,2,3,9" id="椭圆形_6_" node-id="92" stroke="none" target-height="57.900024" target-width="28.799988" target-x="772.3" target-y="537.3"></path></g><g node-id="265"><g node-id="272"><path d="M 870.60 885.60 L 870.40 886.50 L 869.60 887.40 L 868.20 888.30 L 865.60 889.40 L 861.80 890.30 L 857.70 890.80 L 852.90 891.00 L 848.10 890.80 L 844.00 890.30 L 840.20 889.40 L 837.60 888.30 L 836.20 887.40 L 835.40 886.50 L 835.20 885.60 L 835.40 884.70 L 836.20 883.80 L 837.60 882.90 L 840.20 881.80 L 844.00 880.90 L 848.10 880.40 L 852.90 880.20 L 857.70 880.40 L 861.80 880.90 L 865.60 881.80 L 868.20 882.90 L 869.60 883.80 L 870.40 884.70 L 870.60 885.60 Z" fill="#888a8f" fill-opacity="0.42828768" fill-rule="nonzero" group-id="1,2,3,10,17" id="椭圆形_7_" node-id="94" stroke="none" target-height="10.799988" target-width="35.399963" target-x="835.2" target-y="880.2"></path></g><g node-id="273"><path d="M 840.30 886.50 L 841.20 886.60 L 842.50 886.10 L 847.00 882.60 L 850.40 879.00 L 857.70 870.20 L 865.30 859.80 L 872.40 849.20 L 878.00 839.90 L 881.40 833.10 L 882.60 829.10 L 883.10 825.20 L 882.90 821.40 L 882.20 817.60 L 881.00 814.20 L 879.20 811.10 L 875.50 807.30 L 870.90 804.60 L 865.70 803.50 L 860.50 803.90 L 857.20 805.00 L 854.10 806.70 L 851.10 809.00 L 848.50 811.70 L 846.30 814.90 L 844.50 818.70 L 842.50 826.00 L 840.60 836.80 L 839.00 849.50 L 837.90 862.50 L 837.60 874.10 L 837.80 879.00 L 838.90 884.80 L 840.30 886.50 Z" fill="url(#linearGradient-10)" fill-opacity="0.41365027" fill-rule="nonzero" group-id="1,2,3,10,18" id="椭圆形_8_" node-id="95" stroke="none" target-height="83.099976" target-width="45.5" target-x="837.6" target-y="803.5"></path></g><path d="M 840.30 886.80 L 841.30 886.20 L 842.20 884.90 L 843.20 882.50 L 844.20 878.50 L 845.10 872.80 L 846.10 859.60 L 846.10 837.10 L 845.40 823.10 L 844.00 812.20 L 843.30 808.80 L 842.10 805.40 L 840.60 802.30 L 838.70 799.40 L 836.60 796.80 L 834.20 794.50 L 831.60 792.50 L 828.70 790.80 L 825.80 789.60 L 822.80 788.80 L 819.60 788.40 L 816.50 788.40 L 813.30 789.00 L 810.20 790.10 L 807.50 791.50 L 805.00 793.30 L 802.80 795.50 L 800.90 797.90 L 799.30 800.70 L 797.20 806.80 L 796.70 810.10 L 796.60 813.50 L 796.90 816.90 L 797.70 820.50 L 798.80 823.80 L 803.30 834.00 L 809.80 846.50 L 817.40 859.80 L 825.30 872.00 L 832.70 881.50 L 835.60 884.50 L 837.70 886.10 L 839.20 886.80 L 840.30 886.80 Z" fill="url(#linearGradient-11)" fill-opacity="0.71752" fill-rule="nonzero" group-id="1,2,3,10" id="椭圆形_9_" node-id="96" stroke="none" target-height="98.39996" target-width="49.5" target-x="796.6" target-y="788.4"></path></g></g><g node-id="259"><g node-id="266"><path d="M 461.10 340.20 L 688.50 340.20 L 694.40 340.50 L 700.10 341.50 L 705.50 343.00 L 710.80 345.00 L 715.70 347.60 L 720.30 350.70 L 724.60 354.20 L 728.50 358.10 L 732.00 362.40 L 735.10 367.00 L 737.70 371.90 L 739.70 377.20 L 741.20 382.60 L 742.20 388.30 L 742.50 394.20 L 742.50 691.50 L 742.20 699.00 L 741.50 706.20 L 740.30 713.30 L 738.60 720.20 L 736.50 727.00 L 734.00 733.60 L 731.10 739.90 L 727.80 746.00 L 724.10 751.90 L 720.00 757.50 L 715.60 762.80 L 710.90 767.90 L 705.80 772.60 L 700.50 777.00 L 694.90 781.10 L 689.00 784.80 L 682.90 788.10 L 676.60 791.00 L 670.00 793.50 L 663.20 795.60 L 656.30 797.30 L 649.20 798.50 L 642.00 799.20 L 634.50 799.50 L 407.10 799.50 L 407.10 394.20 L 407.40 388.60 L 408.20 383.30 L 409.50 378.20 L 411.30 373.20 L 413.60 368.50 L 416.30 364.00 L 419.40 359.90 L 422.90 356.10 L 426.70 352.60 L 430.80 349.50 L 435.20 346.80 L 440.00 344.50 L 444.90 342.60 L 450.10 341.30 L 455.50 340.50 L 461.10 340.20 Z" fill="url(#linearGradient-12)" fill-opacity="0.8" fill-rule="nonzero" group-id="1,2,4,11" id="矩形_1_" node-id="99" stroke="none" target-height="459.3" target-width="335.4" target-x="407.1" target-y="340.2"></path><path d="M 461.10 348.30 L 688.50 348.30 L 694.40 348.60 L 700.10 349.60 L 705.50 351.10 L 710.80 353.10 L 715.70 355.70 L 720.30 358.80 L 724.60 362.30 L 728.50 366.20 L 732.00 370.50 L 735.10 375.10 L 737.70 380.00 L 739.70 385.30 L 741.20 390.70 L 742.20 396.40 L 742.50 402.30 L 742.50 691.50 L 742.20 699.00 L 741.50 706.20 L 740.30 713.30 L 738.60 720.20 L 736.50 727.00 L 734.00 733.60 L 731.10 739.90 L 727.80 746.00 L 724.10 751.90 L 720.00 757.50 L 715.60 762.80 L 710.90 767.90 L 705.80 772.60 L 700.50 777.00 L 694.90 781.10 L 689.00 784.80 L 682.90 788.10 L 676.60 791.00 L 670.00 793.50 L 663.20 795.60 L 656.30 797.30 L 649.20 798.50 L 642.00 799.20 L 634.50 799.50 L 407.10 799.50 L 407.10 402.30 L 407.40 396.70 L 408.20 391.40 L 409.50 386.30 L 411.30 381.30 L 413.60 376.60 L 416.30 372.10 L 419.40 368.00 L 422.90 364.20 L 426.70 360.70 L 430.80 357.60 L 435.20 354.90 L 440.00 352.60 L 444.90 350.70 L 450.10 349.40 L 455.50 348.60 L 461.10 348.30 Z" fill="url(#linearGradient-13)" fill-opacity="0.8" fill-rule="nonzero" group-id="1,2,4,11" id="矩形备份-10" node-id="100" stroke="none" target-height="451.2" target-width="335.4" target-x="407.1" target-y="348.3"></path><path d="M 369.90 517.80 L 407.10 517.80 L 407.10 799.50 L 369.90 799.50 L 364.00 799.20 L 358.30 798.20 L 352.90 796.70 L 347.60 794.70 L 342.70 792.10 L 338.10 789.00 L 333.80 785.50 L 329.90 781.60 L 326.40 777.30 L 323.30 772.70 L 320.70 767.80 L 318.70 762.50 L 317.20 757.10 L 316.20 751.40 L 315.90 745.50 L 315.90 571.80 L 316.20 565.90 L 317.20 560.20 L 318.70 554.80 L 320.70 549.50 L 323.30 544.60 L 326.40 540.00 L 329.90 535.70 L 333.80 531.80 L 338.10 528.30 L 342.70 525.20 L 347.60 522.60 L 352.90 520.60 L 358.30 519.10 L 364.00 518.10 L 369.90 517.80 Z" fill="url(#linearGradient-14)" fill-opacity="0.8" fill-rule="nonzero" group-id="1,2,4,11" id="矩形_2_" node-id="101" stroke="none" target-height="281.7" target-width="91.20001" target-x="315.9" target-y="517.8"></path><g node-id="274"><g node-id="279"><path d="M 463.30 366.20 L 686.20 366.20 L 690.70 366.50 L 694.90 367.40 L 698.90 368.70 L 702.70 370.60 L 706.10 372.90 L 709.20 375.60 L 711.90 378.80 L 714.20 382.20 L 716.10 385.90 L 717.50 389.90 L 718.30 394.10 L 718.60 398.60 L 718.60 681.80 L 718.30 689.40 L 717.40 696.80 L 716.00 703.90 L 714.00 710.80 L 711.40 717.60 L 708.40 724.00 L 704.90 730.20 L 700.90 736.00 L 696.50 741.60 L 691.80 746.70 L 686.60 751.50 L 681.10 755.90 L 675.20 759.80 L 669.10 763.30 L 662.60 766.40 L 655.90 768.90 L 648.90 770.90 L 641.80 772.40 L 634.50 773.30 L 626.80 773.60 L 430.90 773.60 L 430.90 398.60 L 431.20 394.10 L 432.10 389.90 L 433.50 385.90 L 435.40 382.20 L 437.70 378.80 L 440.40 375.60 L 443.50 372.90 L 446.90 370.60 L 450.70 368.70 L 454.70 367.40 L 458.90 366.50 L 463.30 366.20 Z" fill="url(#linearGradient-15)" fill-opacity="0.8" fill-rule="nonzero" group-id="1,2,4,11,19,24" id="path-20" node-id="104" stroke="none" target-height="407.39996" target-width="287.69998" target-x="430.9" target-y="366.2"></path></g><path d="M 463.30 374.30 L 686.20 374.30 L 690.70 374.60 L 694.90 375.50 L 698.90 376.80 L 702.70 378.70 L 706.10 381.00 L 709.20 383.70 L 711.90 386.90 L 714.20 390.30 L 716.10 394.00 L 717.50 398.00 L 718.30 402.20 L 718.60 406.70 L 718.60 689.90 L 718.30 697.50 L 717.40 704.90 L 716.00 712.00 L 714.00 718.90 L 711.40 725.70 L 708.40 732.10 L 704.90 738.30 L 700.90 744.10 L 696.50 749.70 L 691.80 754.80 L 686.60 759.60 L 681.10 764.00 L 675.20 767.90 L 669.10 771.40 L 662.60 774.50 L 655.90 777.00 L 648.90 779.00 L 641.80 780.50 L 634.50 781.40 L 626.80 781.70 L 430.90 781.70 L 430.90 406.70 L 431.20 402.20 L 432.10 398.00 L 433.50 394.00 L 435.40 390.30 L 437.70 386.90 L 440.40 383.70 L 443.50 381.00 L 446.90 378.70 L 450.70 376.80 L 454.70 375.50 L 458.90 374.60 L 463.30 374.30 Z" fill="url(#linearGradient-16)" fill-opacity="0.8" fill-rule="nonzero" group-id="1,2,4,11,19,25" id="路径_1_" node-id="106" stroke="none" target-height="407.40002" target-width="287.69998" target-x="430.9" target-y="374.3"></path></g><g node-id="275"><path d="M 494.40 426.90 L 675.60 426.90 L 678.40 427.20 L 680.90 427.90 L 683.30 429.00 L 685.40 430.50 L 687.30 432.40 L 688.80 434.50 L 689.90 436.90 L 690.60 439.40 L 690.90 442.20 L 690.60 445.00 L 689.90 447.50 L 688.80 449.90 L 687.30 452.00 L 685.40 453.90 L 683.30 455.40 L 680.90 456.50 L 678.40 457.20 L 675.60 457.50 L 494.40 457.50 L 491.60 457.20 L 489.10 456.50 L 486.70 455.40 L 484.60 453.90 L 482.70 452.00 L 481.20 449.90 L 480.10 447.50 L 479.40 445.00 L 479.10 442.20 L 479.40 439.30 L 480.20 436.70 L 481.30 434.40 L 482.90 432.20 L 484.70 430.40 L 486.80 428.90 L 489.10 427.80 L 491.60 427.20 L 494.40 426.90 Z" fill="url(#linearGradient-17)" fill-opacity="0.47784" fill-rule="nonzero" group-id="1,2,4,11,20" id="矩形_3_" node-id="107" stroke="none" target-height="30.600006" target-width="211.80002" target-x="479.1" target-y="426.9"></path></g><g node-id="276"><path d="M 494.40 492.00 L 675.60 492.00 L 678.40 492.30 L 680.90 493.00 L 683.30 494.10 L 685.40 495.60 L 687.30 497.50 L 688.80 499.60 L 689.90 502.00 L 690.60 504.50 L 690.90 507.30 L 690.60 510.10 L 689.90 512.60 L 688.80 515.00 L 687.30 517.10 L 685.40 519.00 L 683.30 520.50 L 680.90 521.60 L 678.40 522.30 L 675.60 522.60 L 494.40 522.60 L 491.60 522.30 L 489.10 521.60 L 486.70 520.50 L 484.60 519.00 L 482.70 517.10 L 481.20 515.00 L 480.10 512.60 L 479.40 510.10 L 479.10 507.30 L 479.40 504.40 L 480.20 501.80 L 481.30 499.50 L 482.90 497.30 L 484.70 495.50 L 486.80 494.00 L 489.10 492.90 L 491.60 492.30 L 494.40 492.00 Z" fill="url(#linearGradient-18)" fill-opacity="0.47784" fill-rule="nonzero" group-id="1,2,4,11,21" id="矩形备份" node-id="108" stroke="none" target-height="30.599976" target-width="211.80002" target-x="479.1" target-y="492"></path></g><g node-id="277"><path d="M 494.40 556.80 L 578.40 556.80 L 581.20 557.10 L 583.70 557.80 L 586.10 558.90 L 588.20 560.40 L 590.10 562.30 L 591.60 564.40 L 592.70 566.80 L 593.40 569.30 L 593.70 572.10 L 593.40 574.90 L 592.70 577.40 L 591.60 579.80 L 590.10 581.90 L 588.20 583.80 L 586.10 585.30 L 583.70 586.40 L 581.20 587.10 L 578.40 587.40 L 494.40 587.40 L 491.60 587.10 L 489.10 586.40 L 486.70 585.30 L 484.60 583.80 L 482.70 581.90 L 481.20 579.80 L 480.10 577.40 L 479.40 574.90 L 479.10 572.10 L 479.40 569.30 L 480.20 566.80 L 481.30 564.40 L 482.90 562.20 L 484.70 560.40 L 486.80 558.90 L 489.10 557.80 L 491.60 557.10 L 494.40 556.80 Z" fill="url(#linearGradient-19)" fill-opacity="0.47784" fill-rule="nonzero" group-id="1,2,4,11,22" id="矩形备份-2" node-id="109" stroke="none" target-height="30.600037" target-width="114.600006" target-x="479.1" target-y="556.8"></path></g><path d="M 369.90 517.90 L 407.10 517.90 L 407.10 754.00 L 406.80 758.70 L 406.20 763.20 L 405.10 767.50 L 403.50 771.70 L 401.60 775.70 L 399.30 779.50 L 396.70 783.00 L 393.80 786.20 L 390.50 789.20 L 387.00 791.80 L 383.30 794.00 L 379.30 796.00 L 375.10 797.50 L 370.80 798.60 L 366.20 799.30 L 361.50 799.60 L 356.80 799.30 L 352.20 798.60 L 347.90 797.50 L 343.70 796.00 L 339.70 794.00 L 336.00 791.80 L 332.50 789.20 L 329.30 786.20 L 326.30 783.00 L 323.70 779.50 L 321.40 775.70 L 319.50 771.70 L 317.90 767.50 L 316.80 763.20 L 316.20 758.70 L 315.90 754.00 L 315.90 571.90 L 316.20 565.90 L 317.20 560.30 L 318.70 554.80 L 320.70 549.60 L 323.30 544.60 L 326.40 540.00 L 329.90 535.70 L 333.80 531.80 L 338.10 528.30 L 342.70 525.30 L 347.60 522.70 L 352.90 520.60 L 358.30 519.10 L 364.00 518.20 L 369.90 517.90 Z" fill="url(#linearGradient-20)" fill-opacity="0.8" fill-rule="nonzero" group-id="1,2,4,11,23" id="path-25" node-id="111" stroke="none" target-height="281.69995" target-width="91.20001" target-x="315.9" target-y="517.9"></path></g><g node-id="267"><path d="M 531.30 585.30 L 536.50 580.50 L 541.80 576.10 L 547.20 572.20 L 552.80 568.70 L 558.60 565.60 L 566.20 562.10 L 573.80 559.40 L 581.60 557.20 L 589.50 555.70 L 597.60 554.80 L 605.60 554.50 L 613.60 554.80 L 621.70 555.70 L 629.60 557.20 L 637.40 559.40 L 645.00 562.10 L 652.60 565.60 L 658.40 568.70 L 664.00 572.20 L 669.40 576.10 L 674.70 580.50 L 679.80 585.30 L 684.60 590.40 L 689.00 595.70 L 692.90 601.10 L 696.40 606.80 L 699.60 612.60 L 703.00 620.10 L 705.80 627.70 L 707.90 635.50 L 709.40 643.50 L 710.40 651.50 L 710.70 659.50 L 710.40 667.50 L 709.40 675.50 L 707.90 683.40 L 705.70 691.20 L 703.00 698.80 L 699.60 706.30 L 696.40 712.10 L 692.90 717.70 L 689.00 723.10 L 684.60 728.40 L 679.80 733.50 L 674.70 738.20 L 669.40 742.60 L 664.00 746.50 L 658.40 750.00 L 652.60 753.10 L 645.00 756.50 L 637.40 759.30 L 629.60 761.40 L 621.70 762.90 L 613.60 763.90 L 605.60 764.20 L 597.60 763.90 L 589.50 763.00 L 581.60 761.50 L 573.80 759.30 L 566.20 756.60 L 558.60 753.20 L 552.80 750.10 L 547.20 746.50 L 541.80 742.60 L 536.50 738.30 L 531.30 733.50 L 526.60 728.30 L 522.20 723.10 L 518.30 717.60 L 514.80 712.00 L 511.60 706.20 L 508.30 698.70 L 505.50 691.10 L 503.40 683.30 L 501.80 675.40 L 500.90 667.40 L 500.60 659.40 L 500.90 651.40 L 501.90 643.40 L 503.40 635.50 L 505.60 627.70 L 508.30 620.10 L 511.70 612.50 L 514.80 606.70 L 518.40 601.10 L 522.30 595.70 L 526.60 590.40 L 531.30 585.30 Z M 546.30 600.30 L 541.60 605.40 L 537.50 610.70 L 533.80 616.30 L 530.60 622.00 L 527.90 628.00 L 525.70 634.10 L 524.00 640.40 L 522.80 646.70 L 522.10 653.10 L 521.80 659.50 L 522.10 665.90 L 522.80 672.40 L 524.00 678.70 L 525.70 684.90 L 527.90 691.00 L 530.60 697.00 L 533.80 702.80 L 537.50 708.30 L 541.60 713.70 L 546.30 718.80 L 551.50 723.50 L 556.80 727.70 L 562.30 731.30 L 568.10 734.50 L 574.10 737.20 L 580.20 739.40 L 586.40 741.10 L 592.80 742.30 L 599.20 743.10 L 605.60 743.30 L 612.00 743.10 L 618.50 742.30 L 624.80 741.10 L 631.10 739.40 L 637.20 737.20 L 643.30 734.50 L 649.00 731.30 L 654.60 727.70 L 660.00 723.50 L 665.10 718.80 L 669.90 713.70 L 674.10 708.30 L 677.80 702.80 L 681.00 697.00 L 683.70 691.00 L 685.90 684.90 L 687.60 678.70 L 688.80 672.40 L 689.50 665.90 L 689.80 659.50 L 689.50 653.10 L 688.80 646.70 L 687.50 640.40 L 685.80 634.10 L 683.60 628.00 L 680.90 622.00 L 677.70 616.30 L 674.00 610.70 L 669.90 605.40 L 665.10 600.30 L 660.00 595.60 L 654.70 591.40 L 649.10 587.70 L 643.40 584.60 L 637.30 581.90 L 631.20 579.70 L 625.00 578.00 L 618.60 576.70 L 612.20 576.00 L 605.70 575.80 L 599.30 576.00 L 592.90 576.70 L 586.50 578.00 L 580.30 579.70 L 574.10 581.90 L 568.10 584.60 L 562.30 587.70 L 556.80 591.40 L 551.50 595.60 L 546.30 600.30 Z" fill="url(#linearGradient-21)" fill-opacity="0.8" fill-rule="nonzero" group-id="1,2,4,12" id="形状结合_1_" node-id="113" stroke="none" target-height="209.70001" target-width="210.1" target-x="500.6" target-y="554.5"></path><path d="M 683.40 722.70 L 702.00 741.30 L 705.60 738.10 L 707.60 737.30 L 709.70 737.00 L 711.70 737.30 L 713.60 738.10 L 715.20 739.50 L 795.30 819.60 L 796.60 821.20 L 797.40 823.10 L 797.70 825.00 L 797.60 827.00 L 796.90 828.90 L 795.60 830.70 L 777.00 849.30 L 775.20 850.70 L 773.30 851.50 L 771.20 851.80 L 769.20 851.50 L 767.30 850.70 L 765.60 849.30 L 685.50 769.20 L 684.30 767.50 L 683.50 765.70 L 683.10 763.70 L 683.30 761.80 L 684.00 759.90 L 685.20 758.10 L 687.30 756.00 L 668.70 737.40 L 683.40 722.70 Z" fill="url(#linearGradient-22)" fill-opacity="0.8" fill-rule="nonzero" group-id="1,2,4,12" id="形状结合_2_" node-id="114" stroke="none" target-height="129.09998" target-width="129" target-x="668.7" target-y="722.7"></path><path d="M 689.70 659.70 L 689.40 666.70 L 688.60 673.40 L 687.30 679.90 L 685.50 686.20 L 683.10 692.40 L 680.40 698.30 L 677.20 703.90 L 673.50 709.30 L 669.50 714.40 L 665.10 719.10 L 660.40 723.40 L 655.40 727.50 L 650.00 731.10 L 644.40 734.30 L 638.50 737.10 L 632.30 739.40 L 626.00 741.20 L 619.50 742.60 L 612.70 743.40 L 605.70 743.70 L 598.80 743.40 L 592.00 742.60 L 585.50 741.20 L 579.20 739.40 L 573.00 737.10 L 567.10 734.30 L 561.50 731.10 L 556.10 727.50 L 551.10 723.40 L 546.30 719.10 L 542.00 714.40 L 538.00 709.30 L 534.30 703.90 L 531.10 698.30 L 528.40 692.40 L 526.00 686.20 L 524.20 679.90 L 522.90 673.40 L 522.00 666.70 L 521.70 659.70 L 522.00 652.70 L 522.90 646.00 L 524.20 639.50 L 526.00 633.10 L 528.40 626.90 L 531.10 621.00 L 534.30 615.40 L 538.00 610.10 L 542.00 605.00 L 546.30 600.30 L 551.10 595.90 L 556.10 591.90 L 561.50 588.30 L 567.10 585.10 L 573.00 582.30 L 579.20 580.00 L 585.50 578.10 L 592.00 576.80 L 598.80 576.00 L 605.70 575.70 L 612.70 576.00 L 619.50 576.80 L 626.00 578.10 L 632.30 580.00 L 638.50 582.30 L 644.40 585.10 L 650.00 588.30 L 655.40 591.90 L 660.40 595.90 L 665.10 600.30 L 669.50 605.00 L 673.50 610.10 L 677.20 615.40 L 680.40 621.00 L 683.10 626.90 L 685.50 633.10 L 687.30 639.50 L 688.60 646.00 L 689.40 652.70 L 689.70 659.70 Z" fill="url(#linearGradient-23)" fill-opacity="0.8" fill-rule="nonzero" group-id="1,2,4,12" id="椭圆形_10_" node-id="115" stroke="none" target-height="168" target-width="168" target-x="521.7" target-y="575.7"></path></g></g></g></g></svg>